<?xml version='1.0' encoding='UTF-8'?><svg xmlns="http://www.w3.org/2000/svg" xmlns:xlink="http://www.w3.org/1999/xlink" width="40px" height="40px" viewBox="0 0 40 40" version="1.1"><title>Button/Search</title><desc>Created with Sketch.</desc><g id="Button/Search" stroke="none" stroke-width="1" fill="none" fill-rule="evenodd"><g id="search-button"><polygon id="button-bg" fill="#183642" points="0 0 40 0 40 40 0 40"/><g id="Icon/Search/white" transform="translate(13.000000, 13.000000)" fill="#FFFFFF" fill-rule="nonzero"><path d="M10,0 C13.3134902,0 16,2.51860294 16,5.625 C16,8.73139706 13.3134902,11.25 10,11.25 C8.61351634,11.25 7.34099346,10.8051716 6.32499346,10.0645098 L6.32499346,10.0645098 L1.28,14.7942157 C1.13401307,14.9315686 0.942039216,15 0.750013072,15 C0.557986928,15 0.366013072,14.9315686 0.22,14.7942157 C0.0735163399,14.6568627 0,14.4768627 0,14.2968627 C0,14.1163971 0.0735163399,13.9368873 0.22,13.7995343 L0.22,13.7995343 L5.26449673,9.07029412 C4.47448366,8.11781863 4,6.92485294 4,5.625 C4,2.51860294 6.6865098,0 10,0 Z M10.0869565,1.30434783 C7.59347845,1.30434783 5.56521739,3.20584257 5.56521739,5.54347826 C5.56521739,7.88111395 7.59347845,9.7826087 10.0869565,9.7826087 C12.5804346,9.7826087 14.6086957,7.88111395 14.6086957,5.54347826 C14.6086957,3.20584257 12.5804346,1.30434783 10.0869565,1.30434783 Z" id="search" transform="translate(8.000000, 7.500000) scale(-1, 1) translate(-8.000000, -7.500000) "/></g></g></g></svg>